<?xml version="1.0" standalone="no"?>
<!DOCTYPE svg PUBLIC "-//W3C//DTD SVG 20010904//EN"
 "http://www.w3.org/TR/2001/REC-SVG-20010904/DTD/svg10.dtd">
<svg version="1.0" xmlns="http://www.w3.org/2000/svg"
 width="1920.000000pt" height="1920.000000pt" viewBox="0 0 1920.000000 1920.000000"
 preserveAspectRatio="xMidYMid meet">
<metadata>
Created by potrace 1.14, written by Peter Selinger 2001-2017
</metadata>
<g transform="translate(0.000000,1920.000000) scale(0.100000,-0.100000)"
fill="#000000" stroke="none">
<path d="M9315 15569 c-933 -43 -1867 -312 -2670 -772 -468 -267 -860 -564
-1243 -941 -130 -128 -362 -378 -362 -390 0 -3 2050 -6 4556 -6 2781 0 4554 4
4552 9 -8 23 -237 267 -388 415 -656 638 -1427 1105 -2300 1393 -522 172
-1045 267 -1620 293 -246 11 -263 11 -525 -1z"/>
<path d="M4508 12883 c-23 -26 -184 -298 -267 -450 -396 -725 -646 -1604 -702
-2463 -15 -231 -6 -749 15 -950 104 -947 364 -1731 844 -2535 l108 -180 1317
-3 1317 -2 0 1445 0 1445 -410 0 -410 0 0 -1040 0 -1040 -674 0 -675 0 -90
183 c-719 1460 -723 3118 -11 4585 l99 202 675 0 676 0 2 -1037 3 -1038 405 0
405 0 0 1445 0 1445 -1306 3 c-1234 2 -1307 1 -1321 -15z"/>
<path d="M7720 9600 l0 -3300 1875 0 1875 0 0 1393 0 1392 -255 255 -255 255
255 255 255 255 0 1398 0 1397 -1875 0 -1875 0 0 -3300z m2940 1440 l0 -1040
-1065 0 -1065 0 0 1040 0 1040 1065 0 1065 0 0 -1040z m0 -2890 l0 -1040
-1065 0 -1065 0 0 1040 0 1040 1065 0 1065 0 0 -1040z"/>
<path d="M12057 12893 c-4 -3 -7 -1488 -7 -3300 l0 -3293 410 0 410 0 2 2455
3 2456 171 -298 c121 -210 224 -408 348 -668 98 -203 180 -373 184 -377 4 -3
48 55 99 130 713 1063 871 1296 880 1299 12 4 99 -277 147 -477 254 -1047 175
-2150 -226 -3155 -67 -167 -358 -764 -475 -974 -42 -75 -111 -193 -154 -264
l-78 -127 456 2 457 3 93 155 c260 431 424 783 572 1227 152 452 231 821 288
1333 22 197 25 903 5 1105 -80 804 -293 1537 -643 2215 -102 196 -309 548
-328 555 -8 3 -21 0 -28 -8 -8 -8 -235 -343 -506 -746 -271 -403 -496 -732
-502 -733 -5 0 -85 159 -176 353 -137 291 -204 418 -377 716 -116 200 -212
375 -214 390 l-3 28 -401 3 c-220 1 -403 -1 -407 -5z"/>
<path d="M5040 5730 c0 -6 37 -52 82 -103 641 -719 1461 -1285 2353 -1622 499
-189 986 -302 1555 -362 128 -14 254 -17 565 -17 418 0 550 8 870 55 1169 170
2262 687 3149 1489 186 169 448 440 535 553 13 16 -205 17 -4548 17 -3060 0
-4561 -3 -4561 -10z"/>
</g>
</svg>
